<?xml version="1.0" standalone="no"?><!DOCTYPE svg PUBLIC "-//W3C//DTD SVG 1.1//EN" "http://www.w3.org/Graphics/SVG/1.1/DTD/svg11.dtd"><svg t="1699346876206" class="icon" viewBox="0 0 1024 1024" version="1.1" xmlns="http://www.w3.org/2000/svg" p-id="5872" xmlns:xlink="http://www.w3.org/1999/xlink" width="200" height="200"><path d="M928 224H768V167.992889a8.021333 8.021333 0 0 0-7.992889-7.992889H704a8.021333 8.021333 0 0 0-7.992889 7.992889v56.007111h-147.996444V167.992889a8.021333 8.021333 0 0 0-8.021334-7.992889h-55.978666a8.021333 8.021333 0 0 0-8.021334 7.992889v56.007111h-147.996444V167.992889a8.021333 8.021333 0 0 0-7.992889-7.992889H263.992889A8.021333 8.021333 0 0 0 256 167.992889v56.007111H96c-17.692444 0-32 14.307556-32 32v576c0 17.692444 14.307556 32 32 32h832c17.692444 0 32-14.307556 32-32V256c0-17.692444-14.307556-32-32-32zM423.992889 688.014222a8.021333 8.021333 0 0 1-7.992889 7.964445H231.992889a8.021333 8.021333 0 0 1-7.992889-7.964445V640c0-4.408889 3.612444-7.992889 7.992889-7.992889h184.007111c4.408889 0 7.992889 3.584 7.992889 7.992889v48.014222z m0-136.021333a8.021333 8.021333 0 0 1-7.992889 8.021333H231.992889a8.021333 8.021333 0 0 1-7.992889-8.021333V504.035556c0-4.408889 3.612444-8.021333 7.992889-8.021334h184.007111c4.408889 0 7.992889 3.612444 7.992889 8.021334v47.985777z m374.499555-91.306667l-164.977777 228.693334a15.900444 15.900444 0 0 1-25.799111 0l-114.204445-158.179556a8.021333 8.021333 0 0 1 6.485333-12.714667h54.897778c5.12 0 9.898667 2.503111 12.913778 6.599111l52.792889 73.102223 103.708444-143.701334a15.786667 15.786667 0 0 1 12.885334-6.599111h54.812444c6.485333 0.113778 10.296889 7.509333 6.485333 12.8z" fill="#000000" fill-opacity=".65" p-id="5873"></path></svg>